<svg display="none" xmlns="http://www.w3.org/2000/svg">
    <symbol viewBox="0 0 242 90" id="rss">
        <path
            d="M137.197 3.257c-6.927 1.609-10.367 5.259-10.401 11.036-0.039 6.727 3.729 9.816 15.812 12.966 5.873 1.53 7.869 4.182 5.091 6.758-3.153 2.922-9.323 1.027-10.1-3.105-0.385-2.062-0.366-2.056-6.837-1.696l-5.735 0.318 0.276 1.806c0.425 2.784 2.722 7.082 4.68 8.758 5.802 4.964 21.78 4.455 27.25-0.872l1.6-1.558 0.307 1.811c1.125 6.663 7.892 12.923 15.677 14.504l2.5 0.509-1.477 1.935c-4.874 6.384-5.012 19.44-0.276 26.221 7.248 10.375 27.644 10.074 34.355-0.506l1.249-1.969v9.391h31.61v-10.097h-18.878v-29.416h-12.732l-0.025 4.5c-0.022 3.676-0.121 4.343-0.548 3.642-2.419-3.968-7.13-7.265-11.748-8.218l-2.489-0.515 2.526-1.898c7.858-5.906 12.752-16.681 11.495-25.307-3.305-22.669-35.958-23.020-48.395-0.523-0.802 1.448-1.485 2.68-1.519 2.737s-1.153-0.956-2.489-2.247c-2.77-2.683-4.995-3.665-12.558-5.538-7.037-1.744-8.477-2.967-6.112-5.192 2.25-2.115 7.149-0.745 8.252 2.309 0.647 1.789 0.529 1.772 8.010 1.277l4.326-0.287-0.276-1.724c-1.277-7.987-11.329-12.386-22.424-9.807zM2.635 23.268v19.755h12.732v-15.806h1.294c2.042 0 3.277 1.502 7.214 8.781l3.682 6.803 7.079 0.121c3.893 0.067 7.076 0.003 7.076-0.141 0-2.225-7.934-15.064-10.136-16.402l-1.207-0.734 2.436-1.274c9.031-4.728 7.321-18.273-2.576-20.396-1.249-0.267-7.574-0.467-14.884-0.467h-12.71v19.755zM195.401 6.952c19.87 5.186 18.051 33.064-2.824 43.242-21.268 10.37-40.222-6.654-30.113-27.045 5.898-11.897 20.984-19.316 32.934-16.194zM24.14 12.417c4.472 2.261 1.505 6.435-4.829 6.795l-3.943 0.225v-7.585l3.842 0.006c2.199 0.003 4.306 0.242 4.93 0.557zM188.373 15.91c-3.496 0.928-7.051 4.461-7.054 7.009-0.006 4.163 3.322 5.664 8.558 3.862 3.203-1.102 4.019-1.102 4.612 0.003 1.004 1.879-2.287 3.794-4.207 2.447-0.965-0.675-4.523 1.454-4.559 2.728-0.056 1.918 4.798 2.644 7.771 1.162 9.442-4.705 6.761-14.805-3.032-11.427-3.915 1.35-4.756 1.409-4.756 0.323 0-1.704 2.663-2.936 3.825-1.775 0.475 0.475 4.075-1.912 4.075-2.703 0-1.181-3.189-2.177-5.237-1.631zM174.201 25.383c-2.095 1.516-2.194 1.122 1.648 6.576 2.365 3.355 3.274 5.012 3.184 5.797-0.157 1.342-1.662 1.699-2.72 0.644-0.672-0.672-0.847-0.619-2.438 0.745-4.019 3.443 2.090 6.398 6.629 3.209 4.987-3.504 4.995-5.678 0.037-12.918-3.845-5.617-4.022-5.729-6.342-4.050zM13.044 49.621c-7.183 1.133-11.388 5.333-11.444 11.43-0.056 6.221 3.977 9.765 13.967 12.265 6.123 1.533 8.139 2.703 8.139 4.719 0 5.678-10.164 5.11-11.239-0.627-0.377-2.002-0.329-1.991-6.812-1.64l-5.749 0.312 0.287 1.8c1.311 8.252 6.109 11.686 16.799 12.021 8.477 0.264 11.391-0.557 15.092-4.258l2.534-2.534 0.931 1.257c5.386 7.284 23.58 7.774 29.554 0.793 1.747-2.039 3.707-5.881 3.907-7.65 0.141-1.246 0.101-1.268-5.223-2.883l-5.363-1.628-0.72 2.166c-2.453 7.383-11.714 7.467-13.748 0.127-0.692-2.495-0.608-8.454 0.157-11.022 1.845-6.207 9.638-7.481 12.8-2.090 1.319 2.25 0.965 2.208 6.95 0.855 5.698-1.288 5.453-1.060 4.154-3.859-5.153-11.087-22.475-13.688-31.66-4.759l-2.562 2.492-1.063-1.814c-2.649-4.523-11.005-6.846-19.682-5.473zM134.342 49.632c-4.863 0.844-9.667 3.904-12.381 7.883-0.726 1.066-0.745 0.979-0.768-3.187l-0.023-4.281h-12.732v13.61h-12.732v-13.61h-12.732v39.513h12.732v-15.806h12.732v15.806h12.732v-8.933l1.375 2.073c5.721 8.634 23.414 10.15 31.466 2.694 9.318-8.626 7.49-28.249-3.136-33.671-4.101-2.093-11.298-3.004-16.535-2.095zM20.183 57.727c0.734 0.38 1.595 1.409 2.062 2.467l0.802 1.817 8.578-0.413-0.281 2.239c-0.371 2.962-0.537 3.074-2.998 1.986-1.159-0.512-4.402-1.505-7.211-2.211-6.646-1.665-7.473-2.022-7.813-3.375-0.63-2.503 3.766-4.112 6.865-2.509zM141.871 59.279c6.502 1.806 7.819 16.729 1.789 20.278-4.503 2.649-10.201 0.394-11.537-4.57-2.655-9.863 2.264-17.786 9.748-15.708zM194.951 59.268c7.554 2.098 7.4 19.074-0.191 21.119-6.103 1.642-10.164-2.599-10.133-10.581 0.034-8.294 3.963-12.305 10.325-10.536z">
        </path>
    </symbol>
    <symbol viewBox="0 0 50 50" id="logo">
        <path
            d="M20.4506 5.25918C19.0919 5.69691 17.9456 6.47652 17.6601 7.15634L17.5398 7.4419L15.6561 7.43301L15.4116 6.93006C15.2253 6.54668 15.063 6.3708 14.7263 6.18701L14.2864 5.94591H11.1062C6.93498 5.94591 6.40895 6.15341 6.40895 7.80355V8.26796L5.69955 8.61478C3.08441 9.8924 1.03538 12.416 0.225789 15.3546L0.000346207 16.1748V26.2584C0.000346207 37.2698 -0.0327188 36.5584 0.547422 38.1166C1.84798 41.6086 4.86291 44.1352 8.54916 44.8258C9.78859 45.0581 40.2114 45.0581 41.4508 44.8258C45.1371 44.1362 48.152 41.6096 49.4526 38.1166C50.0327 36.5584 49.9997 37.2698 49.9997 26.2584V16.1748L49.7832 15.4031C48.649 11.3647 45.7433 8.61182 41.6342 7.67905C41.02 7.53972 40.2134 7.50514 36.6765 7.46858L32.4532 7.42412L32.3369 7.14745C32.0504 6.46565 30.8209 5.64553 29.4663 5.23349C28.3992 4.9084 21.4756 4.92816 20.4506 5.25918ZM40.0601 10.8222C43.053 11.1256 45.3856 12.9526 46.3976 15.7874L46.6731 16.5591L46.7012 25.871C46.7332 36.5189 46.7653 36.0218 45.9236 37.7342C44.9758 39.662 43.064 41.1205 40.9288 41.5453C39.7856 41.7726 10.2114 41.7726 9.07118 41.5453C6.91594 41.1145 5.0112 39.6284 4.00923 37.5949C3.24473 36.0426 3.26677 36.4072 3.29883 25.871L3.32689 16.5591L3.63149 15.7163C4.60841 13.0168 6.9961 11.1167 9.77356 10.8291C10.9589 10.7066 38.8517 10.6997 40.0601 10.8212V10.8222ZM9.51706 11.8884C6.37889 12.3419 4.35391 14.8942 4.35391 18.398V19.6954H11.0661L11.2915 19.2369C12.2845 17.2123 14.2844 15.0167 16.4357 13.5869C17.2402 13.0524 19.3614 11.9763 19.6109 11.9763C19.669 11.9763 19.7161 11.9328 19.7161 11.8795C19.7161 11.7609 10.3457 11.7678 9.51706 11.8874V11.8884ZM30.2839 11.8548C30.2839 11.9002 30.4492 11.9951 30.6506 12.0652C33.7206 13.1294 37.462 16.4702 38.7385 19.2863L38.9249 19.6964H45.6471V18.399C45.6471 15.1284 44.1341 12.9842 41.1462 12.0168C40.5581 11.8261 30.2849 11.674 30.2849 11.8558L30.2839 11.8548ZM24.0707 12.5178C12.6663 13.6156 7.13237 25.9748 14.0931 34.7976C21.7892 44.5512 37.8768 39.7015 38.8858 27.3236C39.5611 19.0343 32.2528 11.7313 24.0707 12.5178ZM26.6638 15.9455C33.2327 16.8753 37.3277 23.963 34.8278 30.0774C31.9482 37.1216 22.708 38.9279 17.4136 33.4804C10.3908 26.2544 16.5819 14.5187 26.6638 15.9455ZM23.8723 17.5719C17.9617 18.395 14.553 24.3474 16.8885 29.7701C19.5698 35.9942 28.5605 36.7659 32.376 31.1001C36.5512 24.9007 31.2949 16.5394 23.8723 17.5719ZM27.7168 18.9098C28.8581 19.2596 29.7118 20.0768 29.7318 20.8366C29.7779 22.5886 26.2289 22.5332 25.0416 20.7635C24.1388 19.4187 25.747 18.3051 27.7168 18.9098ZM22.701 32.2552C23.7821 32.4805 25.3923 33.4557 25.3923 33.8846C25.3923 34.8865 21.7581 34.2393 20.697 33.0486C19.9636 32.2246 20.8564 31.8708 22.701 32.2552ZM41.9128 35.9991C39.8938 36.6167 40.2846 39.3863 42.3897 39.3794C44.5309 39.3725 44.6902 36.2629 42.564 35.9734C42.3486 35.9438 42.056 35.9556 41.9128 36.0001V35.9991Z" />
    </symbol>
    <symbol viewBox="0 0 60 60" id="search">
        <g>
            <path d="
            M15.3,30.9C6.8,30.9-0.1,24-0.1,15.5S6.8,0,15.3,0S30.8,7,30.8,15.5c0,1.2-0.1,2.4-0.4,3.6c-0.1,0.5-0.7,0.9-1.2,0.7
            c-0.5-0.1-0.9-0.7-0.7-1.2c0.2-1,0.4-2,0.4-3.1c0-7.4-6-13.5-13.5-13.5S1.9,8.1,1.9,15.5s6,13.5,13.5,13.5c1.1,0,2.1-0.1,3.2-0.4
            c0.5-0.1,1.1,0.2,1.2,0.7c0.1,0.5-0.2,1.1-0.7,1.2C17.8,30.8,16.6,30.9,15.3,30.9z" />
        </g>
        <g>
            <path
                d="M36.4,40c-0.9,0-1.8-0.4-2.5-1l-11-11c-0.4-0.4-0.4-1,0-1.4s1-0.4,1.4,0l11,11c0.6,0.6,1.6,0.6,2.1,0   c0.6-0.6,0.6-1.6,0-2.1l-11-11c-0.4-0.4-0.4-1,0-1.4s1-0.4,1.4,0l11,11c1.4,1.4,1.4,3.6,0,5C38.2,39.6,37.3,40,36.4,40z" />
        </g>
        <g>
            <path
                d="M15.3,27C9,27,3.8,21.8,3.8,15.5S9,4,15.3,4s11.5,5.2,11.5,11.5S21.7,27,15.3,27z M15.3,6c-5.2,0-9.5,4.3-9.5,9.5   s4.3,9.5,9.5,9.5s9.5-4.3,9.5-9.5S20.6,6,15.3,6z" />
        </g>
    </symbol>
</svg>